<svg width="315" height="293" viewBox="0 0 315 293" fill="none" xmlns="http://www.w3.org/2000/svg">
<g style="mix-blend-mode:overlay">
<path d="M313.012 78.1186C312.244 76.6948 310.714 75.8496 309.101 75.9591L40.837 93.9432C39.2426 94.05 37.8534 95.0663 37.2687 96.5528C36.6839 98.0392 37.0083 99.7293 38.1018 100.894L78.9214 144.343L69.7906 233.817C69.7115 234.445 69.7799 235.074 69.978 235.658C69.9978 235.717 70.0148 235.762 70.0322 235.808C70.4009 236.756 71.0945 237.554 72.0461 238.028C72.1676 238.088 72.2914 238.143 72.4164 238.191C72.4973 238.222 72.5785 238.25 72.6606 238.276C73.4128 238.511 74.1928 238.52 74.9186 238.332C75.1641 238.269 75.4056 238.183 75.6393 238.073C75.7121 238.039 75.776 238.007 75.839 237.973L124.865 212.252C126.885 211.192 127.664 208.694 126.604 206.674C125.542 204.653 123.046 203.875 121.026 204.935L82.5148 225.14L105.832 172.889L179.954 250.05C180.702 250.824 181.67 251.244 182.657 251.31C182.766 251.317 182.866 251.319 182.967 251.319C183.965 251.308 184.952 250.946 185.732 250.226C185.772 250.188 185.808 250.155 185.843 250.12C186.006 249.958 186.148 249.792 186.274 249.619L312.671 82.5734C313.647 81.283 313.781 79.5415 313.012 78.1186ZM50.1052 101.603L269.373 86.9031L84.5236 138.239L50.1052 101.603ZM103.057 161.754C102.596 161.934 102.16 162.201 101.774 162.553C101.724 162.599 101.675 162.646 101.627 162.694C101.243 163.082 100.951 163.528 100.752 164.002L80.6162 209.123L87.0461 146.113L246.699 101.775L103.057 161.754ZM182.561 240.835L111.72 167.09L296.851 89.7877L182.561 240.835Z" fill="#9C00B7"/>
</g>
</svg>
