<svg width="255" height="187" viewBox="0 0 255 187" fill="none" xmlns="http://www.w3.org/2000/svg">
<g style="mix-blend-mode:overlay">
<path d="M206.629 0.464427L26.1686 25.0294C10.0858 27.2187 -1.22537 42.0369 0.955716 58.0596L15.0298 161.451C17.2108 177.474 32.0712 188.729 48.1541 186.54L228.615 161.975C244.697 159.786 256.009 144.967 253.827 128.945L239.754 25.5567C237.576 9.53031 222.715 -1.72527 206.629 0.464427ZM194.957 21.3627L125.618 80.4716L43.0022 42.0474L194.957 21.3627ZM226.034 143.02L45.5739 167.585C39.9824 168.346 34.8173 164.431 34.0594 158.864L20.0585 56.0096L122.799 103.686C122.936 103.747 123.08 103.782 123.22 103.837C123.366 103.895 123.516 103.948 123.665 103.999C124.449 104.275 125.245 104.476 126.043 104.57C126.125 104.581 126.205 104.58 126.287 104.588C127.161 104.672 128.034 104.679 128.891 104.562L128.897 104.561C128.903 104.56 128.91 104.559 128.91 104.559C129.766 104.443 130.606 104.206 131.425 103.889C131.502 103.859 131.58 103.839 131.656 103.806C132.4 103.502 133.11 103.096 133.795 102.62C133.925 102.531 134.055 102.44 134.181 102.345C134.301 102.255 134.43 102.183 134.546 102.086L220.804 28.6833L234.805 131.534C235.56 137.105 231.626 142.259 226.034 143.02Z" fill="#9C00B7"/>
</g>
</svg>
