<svg width="66" height="66" viewBox="0 0 66 66" fill="none" xmlns="http://www.w3.org/2000/svg">
<path d="M55.9083 11.6265C51.636 9.62757 47.0678 8.17485 42.292 7.34766C41.7054 8.40809 41.0202 9.83439 40.5477 10.969C35.4709 10.2055 30.4407 10.2055 25.4572 10.969C24.9848 9.83439 24.284 8.40809 23.6922 7.34766C18.9112 8.17485 14.3378 9.6329 10.0655 11.6371C1.44827 24.6589 -0.887731 37.3572 0.280271 49.8753C5.99569 54.1434 11.5346 56.7362 16.9801 58.4328C18.3246 56.5824 19.5237 54.6153 20.5567 52.5423C18.5893 51.7947 16.705 50.8721 14.9245 49.8011C15.3968 49.4512 15.8589 49.0853 16.3052 48.7088C27.165 53.7882 38.9645 53.7882 49.6945 48.7088C50.1462 49.0853 50.6081 49.4512 51.0753 49.8011C49.2896 50.8774 47.4 51.7999 45.4326 52.5476C46.4656 54.6153 47.6596 56.5877 49.0093 58.4381C54.46 56.7415 60.0041 54.1488 65.7195 49.8753C67.09 35.3637 63.3783 22.7819 55.9083 11.6265ZM22.0362 42.1768C18.7762 42.1768 16.1028 39.1334 16.1028 35.4273C16.1028 31.7212 18.7191 28.6725 22.0362 28.6725C25.3534 28.6725 28.0268 31.7158 27.9697 35.4273C27.9749 39.1334 25.3534 42.1768 22.0362 42.1768ZM43.9635 42.1768C40.7035 42.1768 38.0301 39.1334 38.0301 35.4273C38.0301 31.7212 40.6464 28.6725 43.9635 28.6725C47.2806 28.6725 49.9541 31.7158 49.897 35.4273C49.897 39.1334 47.2806 42.1768 43.9635 42.1768Z" fill="#E9E6EF"/>
</svg>
