<svg width="64" height="62" viewBox="0 0 64 62" fill="none" xmlns="http://www.w3.org/2000/svg">
<path fill-rule="evenodd" clip-rule="evenodd" d="M31.505 0C14.0985 0 0 14.0985 0 31.505C0 45.4459 9.0183 57.2209 21.5415 61.3954C23.1168 61.671 23.7075 60.7259 23.7075 59.8989C23.7075 59.1506 23.6681 56.6696 23.6681 54.0311C15.7525 55.4882 13.7047 52.1014 13.0746 50.3292C12.7201 49.4235 11.1843 46.6274 9.84531 45.8791C8.74264 45.2884 7.16739 43.8313 9.80593 43.7919C12.2869 43.7526 14.0591 46.076 14.6498 47.0212C17.4853 51.7863 22.0141 50.4474 23.8257 49.6204C24.1013 47.5725 24.9283 46.1942 25.8341 45.4066C18.8242 44.6189 11.4993 41.9016 11.4993 29.851C11.4993 26.4248 12.7201 23.5894 14.7286 21.384C14.4135 20.5964 13.3109 17.3671 15.0436 13.0352C15.0436 13.0352 17.6822 12.2082 23.7075 16.2645C26.2279 15.5556 28.9058 15.2012 31.5838 15.2012C34.2617 15.2012 36.9396 15.5556 39.46 16.2645C45.4853 12.1688 48.1239 13.0352 48.1239 13.0352C49.8567 17.3671 48.754 20.5964 48.4389 21.384C50.4474 23.5894 51.6682 26.3854 51.6682 29.851C51.6682 41.941 44.3039 44.6189 37.294 45.4066C38.4361 46.3911 39.4206 48.2814 39.4206 51.235C39.4206 55.4488 39.3812 58.8356 39.3812 59.8989C39.3812 60.7259 39.972 61.7104 41.5472 61.3954C53.9917 57.2209 63.01 45.4066 63.01 31.505C63.01 14.0985 48.9115 0 31.505 0Z" fill="#E9E6EF"/>
</svg>
