<svg width="64" height="64" viewBox="0 0 64 64" fill="none" xmlns="http://www.w3.org/2000/svg">
<path d="M62.9785 31.5122C62.9785 35.9317 62.8896 40.364 63.0039 44.7835C63.1944 52.6066 58.2796 58.6518 52.0186 61.3441C49.504 62.4236 46.8624 62.9951 44.132 62.9951C35.585 63.0078 27.0253 63.1221 18.4783 62.957C12.0395 62.83 6.74362 60.1376 2.94636 54.8291C0.952488 52.0351 0 48.8602 0 45.4185C0 36.3127 0 27.2197 0 18.1139C0 10.6845 3.61946 5.49022 10.0456 2.11206C12.8395 0.65158 15.8748 0.0292874 19.0371 0.0165876C27.3301 0.0165876 35.6358 -0.0342118 43.9288 0.0419872C50.3676 0.0927866 55.7396 2.55656 59.702 7.73809C61.9117 10.6337 62.9785 13.961 62.9785 17.6186C62.9785 22.2413 62.9785 26.8768 62.9785 31.5122ZM4.68624 31.5122C4.68624 36.173 4.68624 40.8212 4.68624 45.482C4.68624 47.5648 5.16884 49.5206 6.24832 51.2859C9.08039 55.9213 13.3602 58.1819 18.6688 58.2708C27.1904 58.3978 35.7247 58.3216 44.259 58.2962C46.3544 58.2962 48.3864 57.8644 50.2787 56.9627C55.4348 54.4989 58.3177 50.5747 58.2923 44.6819C58.2415 35.6651 58.2796 26.6482 58.2796 17.6313C58.2796 15.0786 57.5557 12.7418 56.0444 10.6845C53.1234 6.73481 49.0849 4.79173 44.259 4.74093C35.7501 4.63933 27.2412 4.70283 18.7323 4.71553C16.9162 4.71553 15.1636 5.08383 13.4618 5.71882C8.78829 7.4587 4.44495 11.8655 4.64814 18.3552C4.80054 22.7493 4.68624 27.1308 4.68624 31.5122Z" fill="#E9E6EF"/>
<path d="M30.9006 47.4225C22.0912 47.4225 14.9891 40.3108 14.9755 31.4557C14.9618 22.739 22.1186 15.5996 30.8733 15.5996C39.6553 15.5858 46.7847 22.7113 46.7983 31.4972C46.7983 40.2693 39.6826 47.4086 30.9006 47.4225ZM30.9006 42.3032C36.8964 42.3032 41.7586 37.4467 41.7449 31.4695C41.7313 25.5477 36.8691 20.7051 30.9006 20.7051C24.9048 20.7051 20.0152 25.5339 20.0152 31.4972C20.0289 37.4744 24.9048 42.317 30.9006 42.3032Z" fill="#E9E6EF"/>
<path d="M48.0562 11.3198C49.7707 11.3198 51.1677 12.7803 51.1677 14.571C51.155 16.3617 49.7453 17.8094 48.0308 17.7967C46.3418 17.784 44.9575 16.3363 44.9575 14.5837C44.9448 12.793 46.3418 11.3198 48.0562 11.3198Z" fill="#E9E6EF"/>
</svg>
