<svg width="48" height="56" viewBox="0 0 48 56" fill="none" xmlns="http://www.w3.org/2000/svg">
<path d="M25.2131 0.0472525C28.2259 0 31.2215 0.0280015 34.2136 0C34.3949 3.57194 35.6621 7.21038 38.2416 9.73577C40.8159 12.3242 44.4571 13.509 48 13.9097V23.306C44.6799 23.1957 41.3442 22.4957 38.3314 21.0466C37.0192 20.4446 35.7968 19.6693 34.6003 18.8765C34.5848 25.6949 34.6279 32.5045 34.5572 39.2948C34.3776 42.557 33.3158 45.8034 31.4442 48.4916C28.4331 52.9666 23.2069 55.884 17.8391 55.975C14.5466 56.1657 11.2575 55.2557 8.45186 53.5791C3.80229 50.8 0.530495 45.7124 0.0539701 40.2521C-0.00127917 39.0848 -0.0202712 37.9193 0.0263454 36.78C0.440715 32.34 2.60752 28.0925 5.97082 25.2031C9.78303 21.8377 15.1232 20.2346 20.1233 21.1831C20.1699 24.6396 20.0335 28.0925 20.0335 31.5489C17.7493 30.7999 15.0801 31.0099 13.0842 32.4152C11.627 33.3725 10.5203 34.8391 9.94359 36.4982C9.46707 37.6813 9.60347 38.9956 9.63109 40.2521C10.1784 44.0814 13.811 47.2998 17.6889 46.9515C20.2597 46.9235 22.7234 45.4114 24.0632 43.1976C24.4966 42.4223 24.9818 41.6295 25.0077 40.7177C25.2338 36.5437 25.1441 32.3872 25.1717 28.2133C25.1907 18.8065 25.1441 9.426 25.2148 0.0490026L25.2131 0.0472525Z" fill="#E9E6EF"/>
</svg>
