<svg width="360" height="85" viewBox="0 0 360 85" fill="none" xmlns="http://www.w3.org/2000/svg">
<path d="M24.8845 80.1392C28.4187 83.6734 34.1488 83.6734 37.6831 80.1392C41.2173 76.6049 41.2173 70.8748 37.6831 67.3406L15.4587 45.1162C11.9245 41.582 6.19436 41.582 2.66011 45.1162C-0.87413 48.6504 -0.87413 54.3806 2.66011 57.9148L24.8845 80.1392Z" fill="url(#paint0_linear_10_86)"/>
<path d="M37.6776 35.6071C41.2118 32.0728 41.2119 26.3427 37.6776 22.8084C34.1434 19.2742 28.4132 19.2742 24.879 22.8085L2.65461 45.0328C-0.879636 48.5671 -0.879636 54.2972 2.65461 57.8314C6.18885 61.3657 11.919 61.3657 15.4532 57.8314L37.6776 35.6071Z" fill="url(#paint1_linear_10_86)"/>
<path d="M90.4243 37.7502C93.9586 34.2159 93.9586 28.4858 90.4243 24.9516C86.8901 21.4173 81.16 21.4173 77.6257 24.9516L55.4014 47.1759C51.8671 50.7102 51.8671 56.4403 55.4013 59.9746C58.9356 63.5088 64.6657 63.5088 68.2 59.9745L90.4243 37.7502Z" fill="url(#paint2_linear_10_86)"/>
<path d="M77.6184 37.6828C81.1526 41.2171 86.8827 41.2171 90.417 37.6828C93.9512 34.1486 93.9512 28.4184 90.417 24.8842L68.1926 2.65984C64.6584 -0.874404 58.9282 -0.874405 55.394 2.65984C51.8598 6.19408 51.8598 11.9242 55.394 15.4585L77.6184 37.6828Z" fill="url(#paint3_linear_10_86)"/>
<path d="M150.22 9.46001H152.42C153.011 9.45869 153.597 9.57417 154.144 9.79985C154.69 10.0255 155.187 10.3569 155.605 10.7751C156.023 11.1932 156.354 11.6898 156.58 12.2364C156.806 12.7829 156.921 13.3687 156.92 13.96V42.74C156.943 45.6729 156.365 48.5795 155.22 51.28C154.121 53.8929 152.528 56.2695 150.53 58.28C148.523 60.2797 146.145 61.8693 143.53 62.96C140.824 64.0888 137.922 64.67 134.99 64.67C132.058 64.67 129.156 64.0888 126.45 62.96C123.835 61.8693 121.457 60.2797 119.45 58.28C117.452 56.2695 115.859 53.8929 114.76 51.28C113.62 48.578 113.042 45.6724 113.06 42.74V13.96C113.059 13.3687 113.174 12.7829 113.4 12.2364C113.626 11.6898 113.957 11.1932 114.375 10.7751C114.793 10.3569 115.29 10.0255 115.836 9.79985C116.383 9.57417 116.969 9.45869 117.56 9.46001H119.77C120.963 9.46001 122.108 9.93409 122.952 10.778C123.796 11.6219 124.27 12.7665 124.27 13.96V42.74C124.27 45.5725 125.395 48.289 127.398 50.2919C129.401 52.2948 132.117 53.42 134.95 53.42C137.783 53.42 140.499 52.2948 142.502 50.2919C144.505 48.289 145.63 45.5725 145.63 42.74V13.96C145.63 13.3614 145.749 12.7688 145.981 12.2169C146.213 11.665 146.552 11.1648 146.98 10.7458C147.407 10.3267 147.914 9.99713 148.47 9.77635C149.027 9.55557 149.621 9.44803 150.22 9.46001Z" fill="url(#paint4_linear_10_86)"/>
<path d="M200.61 64.63H198.4C197.206 64.63 196.062 64.1559 195.218 63.312C194.374 62.4681 193.9 61.3235 193.9 60.13V42.74C193.905 41.3117 193.623 39.897 193.07 38.58C192.536 37.3043 191.762 36.1433 190.79 35.16C188.77 33.1722 186.049 32.058 183.215 32.058C180.381 32.058 177.66 33.1722 175.64 35.16C174.668 36.1433 173.894 37.3043 173.36 38.58C172.807 39.897 172.525 41.3117 172.53 42.74V60.13C172.531 60.7213 172.416 61.3071 172.19 61.8536C171.964 62.4002 171.633 62.8968 171.215 63.3149C170.797 63.7331 170.3 64.0645 169.754 64.2902C169.207 64.5158 168.621 64.6313 168.03 64.63H165.82C164.627 64.63 163.482 64.1559 162.638 63.312C161.794 62.4681 161.32 61.3235 161.32 60.13V42.74C161.299 39.8063 161.881 36.8996 163.03 34.2C165.254 28.9657 169.424 24.7996 174.66 22.58C177.364 21.4515 180.265 20.8704 183.195 20.8704C186.125 20.8704 189.026 21.4515 191.73 22.58C196.985 24.7944 201.166 28.9753 203.38 34.23C204.529 36.9296 205.111 39.8363 205.09 42.77V60.16C205.085 61.3457 204.611 62.481 203.771 63.3185C202.932 64.1559 201.796 64.6274 200.61 64.63Z" fill="url(#paint5_linear_10_86)"/>
<path d="M216.18 64.63H213.97C213.379 64.6313 212.793 64.5159 212.246 64.2902C211.7 64.0645 211.203 63.7331 210.785 63.315C210.367 62.8968 210.036 62.4002 209.81 61.8536C209.584 61.3071 209.469 60.7213 209.47 60.13V13.96C209.469 13.3687 209.584 12.783 209.81 12.2364C210.036 11.6898 210.367 11.1932 210.785 10.7751C211.203 10.357 211.7 10.0256 212.246 9.79988C212.793 9.5742 213.379 9.45871 213.97 9.46003H216.18C217.373 9.46003 218.518 9.93411 219.362 10.778C220.206 11.6219 220.68 12.7666 220.68 13.96V60.13C220.68 61.3235 220.206 62.4681 219.362 63.312C218.518 64.1559 217.373 64.63 216.18 64.63Z" fill="url(#paint6_linear_10_86)"/>
<path d="M246.95 20.84C249.884 20.8203 252.79 21.4022 255.49 22.55C260.739 24.7724 264.918 28.9507 267.14 34.2C268.262 36.9073 268.84 39.8093 268.84 42.74C268.84 45.6707 268.262 48.5727 267.14 51.28C264.921 56.5292 260.741 60.7053 255.49 62.92C252.784 64.0488 249.882 64.63 246.95 64.63C244.018 64.63 241.116 64.0488 238.41 62.92C235.795 61.8293 233.417 60.2397 231.41 58.24C229.412 56.2295 227.819 53.8529 226.72 51.24C225.598 48.5327 225.02 45.6307 225.02 42.7C225.02 39.7693 225.598 36.8673 226.72 34.16C228.967 28.9297 233.159 24.7773 238.41 22.58C241.107 21.4212 244.014 20.8289 246.95 20.84ZM246.95 53.42C248.535 53.4226 250.101 53.0725 251.535 52.3951C252.968 51.7178 254.233 50.7301 255.237 49.5036C256.242 48.2771 256.961 46.8426 257.343 45.3039C257.725 43.7652 257.759 42.1608 257.444 40.6071C257.13 39.0533 256.473 37.589 255.523 36.3202C254.572 35.0515 253.351 34.01 251.948 33.2714C250.546 32.5327 248.996 32.1153 247.412 32.0493C245.828 31.9834 244.249 32.2705 242.79 32.89C241.514 33.4189 240.353 34.1897 239.37 35.16C238.398 36.1411 237.626 37.3029 237.1 38.58C236.41 40.2047 236.134 41.9751 236.297 43.7327C236.459 45.4903 237.055 47.1801 238.031 48.6507C239.008 50.1213 240.333 51.3268 241.89 52.1592C243.446 52.9915 245.185 53.4248 246.95 53.42Z" fill="url(#paint7_linear_10_86)"/>
<path d="M311.61 44.05C312.331 44.0472 313.043 44.2179 313.684 44.5476C314.326 44.8774 314.879 45.3566 315.297 45.9448C315.714 46.533 315.984 47.213 316.084 47.9275C316.184 48.6419 316.11 49.3698 315.87 50.05C315.618 50.7618 315.327 51.4595 315 52.14C313.838 54.5963 312.219 56.8091 310.23 58.66C308.228 60.5097 305.916 61.9924 303.4 63.04C300.79 64.1277 297.988 64.6787 295.16 64.66C292.229 64.6806 289.326 64.0986 286.63 62.95C284.017 61.8552 281.64 60.2661 279.63 58.27C277.638 56.2564 276.049 53.8804 274.95 51.27C273.821 48.5643 273.24 45.6617 273.24 42.73C273.24 39.7983 273.821 36.8957 274.95 34.19C277.175 28.9485 281.359 24.7828 286.61 22.58C289.306 21.4314 292.21 20.8493 295.14 20.87C297.968 20.8513 300.77 21.4023 303.38 22.49C305.894 23.5413 308.206 25.0236 310.21 26.87C312.199 28.7247 313.818 30.9407 314.98 33.4C315.309 34.0797 315.6 34.7774 315.85 35.49C316.09 36.1701 316.164 36.8981 316.064 37.6125C315.964 38.327 315.694 39.007 315.277 39.5952C314.859 40.1834 314.306 40.6626 313.664 40.9924C313.023 41.3221 312.311 41.4928 311.59 41.49H309.11C308.232 41.4989 307.371 41.2471 306.635 40.7665C305.9 40.2859 305.324 39.5981 304.98 38.79C304.85 38.4482 304.699 38.1143 304.53 37.79C303.95 36.6544 303.163 35.637 302.21 34.79C301.251 33.9447 300.155 33.2684 298.97 32.79C297.745 32.2903 296.433 32.0355 295.11 32.04C292.278 32.0499 289.561 33.1658 287.54 35.15C286.568 36.1332 285.794 37.2943 285.26 38.57C284.437 40.5314 284.214 42.6929 284.62 44.781C285.026 46.869 286.042 48.7897 287.54 50.3C289.008 51.7637 290.872 52.7676 292.902 53.1886C294.932 53.6095 297.041 53.4293 298.97 52.67C300.153 52.1877 301.248 51.5118 302.21 50.67C303.153 49.8371 303.939 48.8413 304.53 47.73C304.7 47.41 304.86 47.07 305 46.73C305.348 45.915 305.93 45.2216 306.672 44.7374C307.415 44.2532 308.284 44.0001 309.17 44.01L311.61 44.05Z" fill="url(#paint8_linear_10_86)"/>
<path d="M328.1 64.63H325.89C325.299 64.6313 324.713 64.5159 324.166 64.2902C323.62 64.0645 323.123 63.7331 322.705 63.315C322.287 62.8968 321.955 62.4002 321.73 61.8536C321.504 61.3071 321.389 60.7213 321.39 60.13V13.96C321.389 13.3687 321.504 12.783 321.73 12.2364C321.955 11.6898 322.287 11.1932 322.705 10.7751C323.123 10.357 323.62 10.0256 324.166 9.79988C324.713 9.5742 325.299 9.45871 325.89 9.46003H328.1C329.293 9.46003 330.438 9.93411 331.282 10.778C332.126 11.6219 332.6 12.7666 332.6 13.96V31.58C332.596 32.3193 332.775 33.0479 333.121 33.7011C333.467 34.3543 333.97 34.9117 334.584 35.3236C335.198 35.7354 335.904 35.9891 336.639 36.0617C337.375 36.1344 338.117 36.0238 338.8 35.74H338.86C342.719 34.0934 345.793 31.0194 347.44 27.16C347.82 26.2726 348.118 25.3521 348.33 24.41C348.551 23.4109 349.107 22.5172 349.905 21.877C350.703 21.2369 351.697 20.8887 352.72 20.89H355.19C355.849 20.8898 356.5 21.0342 357.096 21.3131C357.693 21.592 358.222 21.9986 358.644 22.5041C359.067 23.0096 359.373 23.6017 359.542 24.2386C359.71 24.8755 359.737 25.5417 359.62 26.19C359.162 28.6615 358.347 31.0532 357.2 33.2901C356.024 35.6128 354.529 37.7602 352.76 39.6701C351.992 40.4923 351.565 41.5752 351.565 42.7C351.565 43.8249 351.992 44.9078 352.76 45.7301C354.579 47.6828 356.12 49.8767 357.34 52.25C358.496 54.4917 359.318 56.8904 359.78 59.37C359.9 60.0193 359.876 60.6873 359.709 61.3262C359.542 61.9651 359.236 62.5593 358.813 63.0664C358.39 63.5735 357.86 63.981 357.262 64.26C356.663 64.5389 356.01 64.6823 355.35 64.68H352.81C351.787 64.6814 350.793 64.3332 349.995 63.693C349.197 63.0528 348.641 62.1592 348.42 61.16C348.208 60.2083 347.91 59.2778 347.53 58.38C345.906 54.4761 342.804 51.3734 338.9 49.75H338.78C338.097 49.4727 337.357 49.3677 336.624 49.444C335.892 49.5204 335.189 49.7758 334.578 50.1879C333.968 50.5999 333.468 51.1559 333.123 51.8068C332.778 52.4576 332.598 53.1834 332.6 53.9201V60.2301C332.574 61.4061 332.088 62.5251 331.247 63.3475C330.406 64.17 329.276 64.6303 328.1 64.63Z" fill="url(#paint9_linear_10_86)"/>
<path d="M165.8 80.13C165.469 80.9349 164.971 81.6608 164.34 82.26C163.69 82.8729 162.925 83.352 162.09 83.6701C161.174 84.0216 160.201 84.198 159.22 84.19H154.61V70.83H159.25C160.229 70.8196 161.202 70.9891 162.12 71.33C162.955 71.6481 163.72 72.1271 164.37 72.74C165.001 73.3319 165.498 74.0512 165.83 74.8501C166.519 76.5426 166.519 78.4375 165.83 80.13H165.8ZM164.36 75.45C164.112 74.8153 163.734 74.2395 163.25 73.76C162.753 73.269 162.161 72.8845 161.51 72.63C160.779 72.3506 160.002 72.2115 159.22 72.2201H156.09V82.7901H159.22C160.002 82.8018 160.779 82.6661 161.51 82.39C162.161 82.1451 162.754 81.767 163.25 81.2801C163.727 80.8027 164.105 80.235 164.36 79.6101C164.88 78.2722 164.88 76.7879 164.36 75.45Z" fill="url(#paint10_linear_10_86)"/>
<path d="M182.02 72.2H173.87V76.76H181.16V78.14H173.87V82.81H182.12V84.19H172.37V70.83H182.02V72.2Z" fill="url(#paint11_linear_10_86)"/>
<path d="M198.07 70.83H199.69L193.95 84.28H192.61L186.87 70.83H188.55L193.3 82.33L198.07 70.83Z" fill="url(#paint12_linear_10_86)"/>
<path d="M214.84 72.2H206.69V76.76H213.98V78.14H206.69V82.81H214.94V84.19H205.19V70.83H214.84V72.2Z" fill="url(#paint13_linear_10_86)"/>
<path d="M220.83 70.83H222.34V82.83H229.86V84.23H220.86L220.83 70.83Z" fill="url(#paint14_linear_10_86)"/>
<path d="M247.28 80.13C246.963 80.946 246.491 81.693 245.89 82.33C245.281 82.9781 244.546 83.4953 243.73 83.85C242.854 84.2338 241.906 84.4248 240.95 84.41C239.589 84.4416 238.252 84.0508 237.122 83.2916C235.992 82.5324 235.125 81.442 234.64 80.17C234.315 79.3278 234.149 78.4327 234.15 77.53C234.148 76.623 234.317 75.7238 234.65 74.88C234.97 74.0653 235.442 73.3187 236.04 72.68C236.652 72.0348 237.386 71.5181 238.2 71.16C239.077 70.7809 240.024 70.5902 240.98 70.6C241.899 70.582 242.812 70.7548 243.66 71.1077C244.509 71.4605 245.275 71.9857 245.91 72.65C246.513 73.2832 246.982 74.0315 247.29 74.85C247.95 76.5482 247.95 78.4318 247.29 80.13H247.28ZM245.82 75.37C245.571 74.7177 245.197 74.1201 244.72 73.6101C244.246 73.1115 243.678 72.7105 243.05 72.43C242.39 72.1331 241.674 71.983 240.95 71.99C240.224 71.9845 239.506 72.1311 238.84 72.42C238.215 72.6965 237.654 73.0981 237.19 73.6C236.721 74.1048 236.354 74.6957 236.11 75.34C235.59 76.7262 235.59 78.2539 236.11 79.64C236.357 80.2934 236.731 80.8916 237.21 81.4C237.682 81.9019 238.25 82.3032 238.88 82.58C239.539 82.8807 240.256 83.031 240.98 83.02C241.706 83.0316 242.426 82.8849 243.09 82.59C243.719 82.325 244.282 81.9257 244.74 81.42C245.207 80.9101 245.574 80.3163 245.82 79.67C246.084 78.9876 246.216 78.2616 246.21 77.53C246.216 76.792 246.084 76.0594 245.82 75.37Z" fill="url(#paint15_linear_10_86)"/>
<path d="M263.41 76.99C263.139 77.5302 262.749 78.002 262.27 78.37C261.767 78.7445 261.202 79.0256 260.6 79.2C259.949 79.3808 259.276 79.4717 258.6 79.47H255.35V84.19H253.85V70.83H258.85C259.527 70.8294 260.201 70.9271 260.85 71.12C261.424 71.2998 261.96 71.5846 262.43 71.96C262.864 72.322 263.206 72.781 263.43 73.3C263.676 73.8606 263.799 74.4677 263.79 75.08C263.818 75.7379 263.688 76.393 263.41 76.99ZM261.33 72.99C260.564 72.4648 259.647 72.2049 258.72 72.25H255.33V78.13H258.61C259.121 78.1353 259.63 78.0646 260.12 77.92C260.541 77.7957 260.935 77.592 261.28 77.32C261.602 77.0715 261.859 76.7491 262.03 76.38C262.206 76.0012 262.295 75.5878 262.29 75.17C262.326 74.7509 262.257 74.3293 262.09 73.9434C261.922 73.5575 261.661 73.2195 261.33 72.96V72.99Z" fill="url(#paint16_linear_10_86)"/>
<path d="M279.09 72.2H270.94V76.76H278.23V78.14H270.94V82.81H279.19V84.19H269.44V70.83H279.09V72.2Z" fill="url(#paint17_linear_10_86)"/>
<path d="M294.28 84.19L290.41 79H286.61V84.19H285.1V70.83H290.85C291.527 70.8187 292.202 70.9132 292.85 71.11C293.403 71.2873 293.918 71.5653 294.37 71.93C294.793 72.2697 295.135 72.7003 295.37 73.19C295.603 73.7013 295.719 74.2581 295.71 74.82C295.722 75.3322 295.633 75.8417 295.45 76.32C295.279 76.7488 295.02 77.1372 294.69 77.46C294.357 77.7958 293.968 78.0701 293.54 78.27C293.081 78.4917 292.593 78.6467 292.09 78.73L296.19 84.19H294.28ZM293.28 72.92C292.539 72.4087 291.648 72.1621 290.75 72.22H286.61V77.66H290.72C291.187 77.6663 291.652 77.6023 292.1 77.47C292.493 77.3542 292.863 77.1678 293.19 76.92C293.497 76.6932 293.744 76.3944 293.91 76.05C294.087 75.6858 294.176 75.285 294.17 74.88C294.185 74.5035 294.109 74.1289 293.949 73.7878C293.789 73.4466 293.549 73.149 293.25 72.92H293.28Z" fill="url(#paint18_linear_10_86)"/>
<path d="M301.86 73.83C302.068 73.5409 302.154 73.1819 302.1 72.83H301.42V70.83H303.17V72.58C303.214 73.2086 303.033 73.8323 302.66 74.34C302.229 74.7894 301.664 75.0875 301.05 75.19L300.83 74.52C301.229 74.3864 301.584 74.1481 301.86 73.83Z" fill="url(#paint19_linear_10_86)"/>
<path d="M310.61 75.01C310.725 75.2898 310.915 75.5322 311.16 75.71C311.497 75.9579 311.872 76.1503 312.27 76.28C312.859 76.4916 313.464 76.6554 314.08 76.77C315.268 76.97 316.394 77.4423 317.37 78.15C317.72 78.4457 317.997 78.8176 318.181 79.237C318.364 79.6565 318.45 80.1125 318.43 80.57C318.439 81.1126 318.323 81.65 318.09 82.14C317.867 82.6032 317.546 83.0126 317.15 83.34C316.731 83.6918 316.244 83.9539 315.72 84.11C315.128 84.2941 314.51 84.3851 313.89 84.38C312.89 84.3896 311.896 84.2133 310.96 83.86C310.027 83.4837 309.17 82.9416 308.43 82.26L309.36 81.15C309.984 81.7367 310.7 82.2164 311.48 82.57C312.258 82.898 313.096 83.0582 313.94 83.04C314.714 83.0804 315.478 82.8584 316.11 82.41C316.368 82.2188 316.577 81.9681 316.718 81.6791C316.859 81.3902 316.928 81.0714 316.92 80.75C316.925 80.4596 316.874 80.1711 316.77 79.9C316.655 79.6287 316.468 79.3937 316.23 79.22C315.909 78.9771 315.551 78.788 315.17 78.66C314.604 78.4669 314.026 78.3099 313.44 78.19C312.76 78.0469 312.091 77.8531 311.44 77.61C310.931 77.4353 310.457 77.1711 310.04 76.83C309.683 76.543 309.399 76.1766 309.21 75.76C309.02 75.3007 308.928 74.8068 308.94 74.31C308.933 73.8009 309.046 73.2973 309.27 72.84C309.486 72.3894 309.8 71.993 310.19 71.68C310.6 71.3395 311.072 71.0815 311.58 70.92C312.143 70.7269 312.735 70.6321 313.33 70.64C314.203 70.621 315.073 70.7564 315.9 71.04C316.669 71.3338 317.387 71.7454 318.03 72.26L317.15 73.42C316.588 72.9528 315.953 72.5812 315.27 72.32C314.629 72.085 313.952 71.9665 313.27 71.97C312.869 71.9641 312.471 72.0249 312.09 72.15C311.768 72.2447 311.467 72.3972 311.2 72.6C310.959 72.7858 310.762 73.0211 310.62 73.29C310.49 73.5582 310.422 73.852 310.42 74.15C310.423 74.4468 310.487 74.7397 310.61 75.01Z" fill="url(#paint20_linear_10_86)"/>
<defs>
<linearGradient id="paint0_linear_10_86" x1="13.5653" y1="54.3997" x2="31.7853" y2="77.1197" gradientUnits="userSpaceOnUse">
<stop stop-color="#A100FF"/>
<stop offset="1" stop-color="#EC00FF"/>
</linearGradient>
<linearGradient id="paint1_linear_10_86" x1="37.4169" y1="20.5941" x2="4.45691" y2="58.2941" gradientUnits="userSpaceOnUse">
<stop stop-color="#A100FF"/>
<stop offset="1" stop-color="#EC00FF"/>
</linearGradient>
<linearGradient id="paint2_linear_10_86" x1="88.9364" y1="25.3647" x2="55.2264" y2="61.3147" gradientUnits="userSpaceOnUse">
<stop stop-color="#A100FF"/>
<stop offset="1" stop-color="#EC00FF"/>
</linearGradient>
<linearGradient id="paint3_linear_10_86" x1="52.7432" y1="20.168" x2="93.0732" y2="20.168" gradientUnits="userSpaceOnUse">
<stop stop-color="#A100FF"/>
<stop offset="1" stop-color="#EC00FF"/>
</linearGradient>
<linearGradient id="paint4_linear_10_86" x1="153.97" y1="-20.68" x2="135.36" y2="29.07" gradientUnits="userSpaceOnUse">
<stop stop-color="#A100FF"/>
<stop offset="1" stop-color="#EC00FF"/>
</linearGradient>
<linearGradient id="paint5_linear_10_86" x1="202.74" y1="-2.43999" x2="184.14" y2="47.31" gradientUnits="userSpaceOnUse">
<stop stop-color="#A100FF"/>
<stop offset="1" stop-color="#EC00FF"/>
</linearGradient>
<linearGradient id="paint6_linear_10_86" x1="226.52" y1="6.45003" x2="207.91" y2="56.2" gradientUnits="userSpaceOnUse">
<stop stop-color="#A100FF"/>
<stop offset="1" stop-color="#EC00FF"/>
</linearGradient>
<linearGradient id="paint7_linear_10_86" x1="256.35" y1="17.6" x2="237.74" y2="67.36" gradientUnits="userSpaceOnUse">
<stop stop-color="#A100FF"/>
<stop offset="1" stop-color="#EC00FF"/>
</linearGradient>
<linearGradient id="paint8_linear_10_86" x1="298.61" y1="33.41" x2="280.01" y2="83.16" gradientUnits="userSpaceOnUse">
<stop stop-color="#A100FF"/>
<stop offset="1" stop-color="#EC00FF"/>
</linearGradient>
<linearGradient id="paint9_linear_10_86" x1="336.66" y1="47.64" x2="318.06" y2="97.39" gradientUnits="userSpaceOnUse">
<stop stop-color="#A100FF"/>
<stop offset="1" stop-color="#EC00FF"/>
</linearGradient>
<linearGradient id="paint10_linear_10_86" x1="221.44" y1="15.1301" x2="176.94" y2="59.22" gradientUnits="userSpaceOnUse">
<stop stop-color="#A100FF"/>
<stop offset="1" stop-color="#EC00FF"/>
</linearGradient>
<linearGradient id="paint11_linear_10_86" x1="230.73" y1="24.5101" x2="186.23" y2="68.6001" gradientUnits="userSpaceOnUse">
<stop stop-color="#A100FF"/>
<stop offset="1" stop-color="#EC00FF"/>
</linearGradient>
<linearGradient id="paint12_linear_10_86" x1="237.28" y1="31.11" x2="192.78" y2="75.2" gradientUnits="userSpaceOnUse">
<stop stop-color="#A100FF"/>
<stop offset="1" stop-color="#EC00FF"/>
</linearGradient>
<linearGradient id="paint13_linear_10_86" x1="246.99" y1="40.92" x2="202.5" y2="85.01" gradientUnits="userSpaceOnUse">
<stop stop-color="#A100FF"/>
<stop offset="1" stop-color="#EC00FF"/>
</linearGradient>
<linearGradient id="paint14_linear_10_86" x1="254.56" y1="48.56" x2="210.07" y2="92.6501" gradientUnits="userSpaceOnUse">
<stop stop-color="#A100FF"/>
<stop offset="1" stop-color="#EC00FF"/>
</linearGradient>
<linearGradient id="paint15_linear_10_86" x1="262.3" y1="56.37" x2="217.81" y2="100.46" gradientUnits="userSpaceOnUse">
<stop stop-color="#A100FF"/>
<stop offset="1" stop-color="#EC00FF"/>
</linearGradient>
<linearGradient id="paint16_linear_10_86" x1="269.32" y1="63.45" x2="224.83" y2="107.54" gradientUnits="userSpaceOnUse">
<stop stop-color="#A100FF"/>
<stop offset="1" stop-color="#EC00FF"/>
</linearGradient>
<linearGradient id="paint17_linear_10_86" x1="278.82" y1="73.04" x2="234.33" y2="117.13" gradientUnits="userSpaceOnUse">
<stop stop-color="#A100FF"/>
<stop offset="1" stop-color="#EC00FF"/>
</linearGradient>
<linearGradient id="paint18_linear_10_86" x1="286.89" y1="81.19" x2="242.4" y2="125.28" gradientUnits="userSpaceOnUse">
<stop stop-color="#A100FF"/>
<stop offset="1" stop-color="#EC00FF"/>
</linearGradient>
<linearGradient id="paint19_linear_10_86" x1="290.09" y1="84.41" x2="245.6" y2="128.5" gradientUnits="userSpaceOnUse">
<stop stop-color="#A100FF"/>
<stop offset="1" stop-color="#EC00FF"/>
</linearGradient>
<linearGradient id="paint20_linear_10_86" x1="298.32" y1="92.71" x2="253.82" y2="136.8" gradientUnits="userSpaceOnUse">
<stop stop-color="#A100FF"/>
<stop offset="1" stop-color="#EC00FF"/>
</linearGradient>
</defs>
</svg>
